<svg width="24" height="24" viewBox="0 0 24 24" fill="none" xmlns="http://www.w3.org/2000/svg">
<path fill-rule="evenodd" clip-rule="evenodd" d="M13.9036 4.8571C12.7971 3.94867 11.2029 3.94867 10.0964 4.8571L4.73093 9.26208C4.2682 9.64197 4 10.2092 4 10.8079V18.0004C4 19.105 4.89543 20.0004 6 20.0004H18C19.1046 20.0004 20 19.105 20 18.0004V10.8079C20 10.2092 19.7318 9.64197 19.2691 9.26208L13.9036 4.8571ZM8.82732 3.31131C10.6715 1.79727 13.3285 1.79727 15.1727 3.31131L20.5381 7.7163C21.4636 8.47608 22 9.61049 22 10.8079V18.0004C22 20.2096 20.2091 22.0004 18 22.0004H6C3.79086 22.0004 2 20.2096 2 18.0004V10.8079C2 9.61049 2.53641 8.47608 3.46186 7.71629L8.82732 3.31131Z" fill="black"/>
<path fill-rule="evenodd" clip-rule="evenodd" d="M8 16C8 14.3431 9.34315 13 11 13H13C14.6569 13 16 14.3431 16 16V21H14V16C14 15.4477 13.5523 15 13 15H11C10.4477 15 10 15.4477 10 16V21H8V16Z" fill="black"/>
</svg>
