<svg width="59" height="58" viewBox="0 0 59 58" fill="none" xmlns="http://www.w3.org/2000/svg">
<path d="M5.60767 29.5444C5.60767 24.0895 5.60767 21.362 6.84529 19.101C8.08292 16.8399 10.344 15.4367 14.8661 12.6301L19.6336 9.67129C24.4138 6.70456 26.804 5.22119 29.4449 5.22119C32.0858 5.22119 34.476 6.70456 39.2563 9.67129L44.0237 12.6301C48.5459 15.4367 50.8068 16.8399 52.0445 19.101C53.2821 21.362 53.2821 24.0895 53.2821 29.5444V33.1703C53.2821 42.4687 53.2821 47.1182 50.4893 50.0068C47.6968 52.8956 43.2018 52.8956 34.2123 52.8956H24.6774C15.6878 52.8956 11.1931 52.8956 8.40036 50.0068C5.60767 47.1182 5.60767 42.4687 5.60767 33.1703V29.5444Z" stroke="black" stroke-width="4.5"/>
<path d="M36.596 43.3608H22.2937" stroke="black" stroke-width="4.5" stroke-linecap="round"/>
</svg>
