<svg width="30" height="24" viewBox="0 0 30 24" fill="none" xmlns="http://www.w3.org/2000/svg">
<path d="M17.5 11H10M12.5 15H10M20 7H10M25 6.8V17.2C25 18.8802 25 19.7202 24.5913 20.362C24.2317 20.9265 23.6581 21.3854 22.9525 21.673C22.1503 22 21.1002 22 19 22H11C8.8998 22 7.8497 22 7.04754 21.673C6.34193 21.3854 5.76825 20.9265 5.40873 20.362C5 19.7202 5 18.8802 5 17.2V6.8C5 5.11984 5 4.27976 5.40873 3.63803C5.76825 3.07354 6.34193 2.6146 7.04754 2.32698C7.8497 2 8.8998 2 11 2H19C21.1002 2 22.1503 2 22.9525 2.32698C23.6581 2.6146 24.2317 3.07354 24.5913 3.63803C25 4.27976 25 5.11984 25 6.8Z" stroke="black" stroke-width="2" stroke-linecap="round" stroke-linejoin="round"/>
</svg>
